<svg xmlns="http://www.w3.org/2000/svg" viewBox="0 0 32 32">
  <rect width="32" height="32" rx="7" fill="#122E33"/>
  <path d="M16 6c-1.7 0-3 1.5-3 3.2 0 1.1.6 1.6.6 2.7 0 3.1-4 3.5-5.4 7.3-1.5 3.8-1.5 9.6-.6 13.7" fill="none" stroke="#8FCFC4" stroke-width="1.6" stroke-linecap="round"/>
  <path d="M16 6c1.7 0 3 1.5 3 3.2 0 1.1-.6 1.6-.6 2.7 0 3.1 4 3.5 5.4 7.3" fill="none" stroke="#8FCFC4" stroke-width="1.6" stroke-linecap="round"/>
  <path d="M13.5 20.5c.6 1.9 2 3 2.5 3s2-1.1 2.5-3" fill="none" stroke="#EFE6D8" stroke-width="1.6" stroke-linecap="round"/>
  <circle cx="16" cy="16.8" r="1.1" fill="#EFE6D8"/>
</svg>
